<?xml version="1.0" standalone="no"?>
<!DOCTYPE svg PUBLIC "-//W3C//DTD SVG 20010904//EN"
 "http://www.w3.org/TR/2001/REC-SVG-20010904/DTD/svg10.dtd">
<svg version="1.0" xmlns="http://www.w3.org/2000/svg"
 width="149.000000pt" height="151.000000pt" viewBox="0 0 149.000000 151.000000"
 preserveAspectRatio="xMidYMid meet">
<metadata>
Created by potrace 1.15, written by Peter Selinger 2001-2017
</metadata>
<g transform="translate(0.000000,151.000000) scale(0.100000,-0.100000)"
fill="#000000" stroke="none">
<path d="M595 1401 c-92 -23 -154 -51 -230 -106 -268 -191 -351 -539 -202
-845 47 -97 188 -235 287 -283 103 -50 187 -70 300 -70 113 0 197 20 300 70
99 48 240 186 287 283 149 306 66 654 -202 845 -157 112 -357 152 -540 106z
m567 -376 c-3 -17 -13 -27 -31 -31 -86 -20 -86 -20 -89 -48 -3 -28 -3 -28 33
-22 20 4 43 10 52 13 11 4 14 -1 11 -23 -3 -24 -9 -30 -48 -39 l-45 -11 -1
-52 c-1 -29 -4 -55 -7 -58 -3 -3 -22 -9 -41 -14 l-36 -8 0 137 0 138 83 21
c113 29 125 28 119 -3z m-292 -179 l0 -134 -31 -11 c-55 -19 -59 -16 -59 44 0
55 0 55 -27 49 -71 -17 -73 -20 -73 -78 0 -49 -2 -54 -24 -60 -13 -3 -31 -9
-40 -12 -14 -5 -16 10 -16 134 l0 140 40 10 40 10 0 -55 0 -55 33 7 c68 14 67
13 67 70 0 49 2 54 28 63 63 24 62 25 62 -122z m-343 10 c-3 -8 -28 -19 -56
-26 -47 -11 -51 -14 -51 -42 0 -25 3 -29 18 -23 36 14 72 17 72 7 0 -27 -15
-43 -51 -52 -34 -9 -39 -14 -39 -41 0 -27 2 -29 28 -23 15 4 37 11 50 15 37
14 44 11 40 -18 -3 -25 -9 -28 -93 -50 -49 -12 -96 -23 -102 -23 -10 0 -13 33
-13 134 l0 134 78 20 c42 11 86 22 97 24 21 4 31 -13 22 -36z m659 -182 c-4
-15 -10 -39 -13 -55 -4 -19 -13 -31 -27 -34 -11 -2 -203 -29 -424 -60 -364
-51 -451 -59 -397 -39 30 12 829 212 849 213 15 1 17 -4 12 -25z"/>
</g>
</svg>
